<svg xmlns="http://www.w3.org/2000/svg" xmlns:xlink="http://www.w3.org/1999/xlink" width="2500" zoomAndPan="magnify" viewBox="0 0 1874.88 1124.99995" height="1500" preserveAspectRatio="xMidYMid meet" version="1.0"><defs><g/><clipPath id="119c1c1e4c"><rect x="0" width="1757" y="0" height="351"/></clipPath><clipPath id="0e09dae88f"><path d="M 1777.828125 405.046875 L 1855.074219 405.046875 L 1855.074219 482.292969 L 1777.828125 482.292969 Z M 1777.828125 405.046875 " clip-rule="nonzero"/></clipPath></defs><g transform="matrix(1, 0, 0, 1, 37, 367)"><g clip-path="url(#119c1c1e4c)"><g fill="#4e2780" fill-opacity="1"><g transform="translate(2.847768, 284.396365)"><g><path d="M 74.84375 -142.21875 C 60.53125 -142.21875 48.707031 -140.046875 39.375 -135.703125 C 30.050781 -131.367188 25.390625 -124.863281 25.390625 -116.1875 C 25.390625 -109.894531 27.175781 -105.390625 30.75 -102.671875 C 34.332031 -99.960938 38.398438 -98.609375 42.953125 -98.609375 C 46.640625 -98.609375 49.625 -99.203125 51.90625 -100.390625 C 54.1875 -101.585938 55.976562 -103 57.28125 -104.625 C 58.582031 -106.25 59.445312 -108.035156 59.875 -109.984375 C 60.3125 -111.941406 60.53125 -113.570312 60.53125 -114.875 C 60.53125 -120.300781 58.46875 -124.316406 54.34375 -126.921875 C 52.820312 -127.785156 52.0625 -128.867188 52.0625 -130.171875 C 52.0625 -131.910156 53.6875 -133.375 56.9375 -134.5625 C 60.195312 -135.757812 66.273438 -136.359375 75.171875 -136.359375 C 83.203125 -136.359375 88.410156 -134.1875 90.796875 -129.84375 C 93.179688 -125.507812 94.375 -119.4375 94.375 -111.625 L 94.375 -85.59375 L 59.234375 -85.59375 C 50.335938 -85.59375 42.578125 -84.234375 35.953125 -81.515625 C 29.335938 -78.804688 23.804688 -75.28125 19.359375 -70.9375 C 14.910156 -66.601562 11.601562 -61.671875 9.4375 -56.140625 C 7.269531 -50.609375 6.1875 -45.019531 6.1875 -39.375 C 6.1875 -33.519531 7.210938 -27.929688 9.265625 -22.609375 C 11.328125 -17.296875 14.421875 -12.6875 18.546875 -8.78125 C 22.671875 -4.875 27.820312 -1.785156 34 0.484375 C 40.1875 2.765625 47.40625 3.90625 55.65625 3.90625 C 61.070312 3.90625 65.894531 3.363281 70.125 2.28125 C 74.363281 1.195312 78.109375 -0.210938 81.359375 -1.953125 C 84.609375 -3.691406 87.476562 -5.535156 89.96875 -7.484375 C 92.46875 -9.429688 94.585938 -11.273438 96.328125 -13.015625 C 98.285156 -8.460938 102.191406 -4.503906 108.046875 -1.140625 C 113.898438 2.222656 122.359375 3.90625 133.421875 3.90625 C 141.234375 3.90625 147.414062 3.035156 151.96875 1.296875 C 156.53125 -0.429688 160.054688 -2.488281 162.546875 -4.875 C 165.046875 -7.269531 166.675781 -9.875 167.4375 -12.6875 C 168.195312 -15.507812 168.578125 -18.113281 168.578125 -20.5 C 168.578125 -22.238281 167.925781 -23.109375 166.625 -23.109375 C 165.101562 -23.109375 164.234375 -22.128906 164.015625 -20.171875 C 163.367188 -16.921875 162.335938 -14.101562 160.921875 -11.71875 C 159.515625 -9.332031 156.96875 -8.140625 153.28125 -8.140625 C 148.9375 -8.140625 146.164062 -9.601562 144.96875 -12.53125 C 143.78125 -15.457031 143.1875 -19.523438 143.1875 -24.734375 L 143.1875 -93.078125 C 143.1875 -102.191406 141.9375 -109.894531 139.4375 -116.1875 C 136.945312 -122.476562 132.9375 -127.570312 127.40625 -131.46875 C 121.875 -135.375 114.820312 -138.140625 106.25 -139.765625 C 97.6875 -141.398438 87.21875 -142.21875 74.84375 -142.21875 Z M 94.375 -79.734375 L 94.375 -22.78125 C 94.375 -20.832031 93.453125 -18.828125 91.609375 -16.765625 C 89.765625 -14.703125 87.539062 -12.851562 84.9375 -11.21875 C 82.332031 -9.59375 79.726562 -8.238281 77.125 -7.15625 C 74.519531 -6.070312 72.566406 -5.53125 71.265625 -5.53125 C 65.847656 -5.53125 62 -8.1875 59.71875 -13.5 C 57.4375 -18.820312 56.296875 -27.554688 56.296875 -39.703125 C 56.296875 -51.640625 58.191406 -61.296875 61.984375 -68.671875 C 65.785156 -76.046875 72.132812 -79.734375 81.03125 -79.734375 Z M 94.375 -79.734375 "/></g></g></g><g fill="#4e2780" fill-opacity="1"><g transform="translate(177.899905, 284.396365)"><g><path d="M 75.171875 -5.203125 L 75.171875 -227.484375 L 8.78125 -215.109375 L 8.78125 -209.90625 L 26.359375 -213.15625 L 26.359375 -5.203125 L 8.78125 -5.203125 L 8.78125 0 L 92.75 0 L 92.75 -5.203125 Z M 75.171875 -5.203125 "/></g></g></g><g fill="#4e2780" fill-opacity="1"><g transform="translate(277.464866, 284.396365)"><g><path d="M 75.171875 -5.203125 L 75.171875 -227.484375 L 8.78125 -215.109375 L 8.78125 -209.90625 L 26.359375 -213.15625 L 26.359375 -5.203125 L 8.78125 -5.203125 L 8.78125 0 L 92.75 0 L 92.75 -5.203125 Z M 75.171875 -5.203125 "/></g></g></g><g fill="#ab1d79" fill-opacity="1"><g transform="translate(377.09264, 284.396365)"><g><path d="M 212.84375 -129.203125 C 212.84375 -128.117188 212.785156 -127.25 212.671875 -126.59375 C 212.566406 -125.945312 212.40625 -125.296875 212.1875 -124.640625 L 188.421875 -54.34375 L 151.65625 -134.734375 L 163.046875 -134.734375 L 163.046875 -139.9375 L 95.03125 -139.9375 L 95.03125 -134.734375 L 106.421875 -134.734375 L 124.96875 -93.71875 L 109.671875 -55.96875 L 71.59375 -134.734375 L 82.328125 -134.734375 L 82.328125 -139.9375 L 9.109375 -139.9375 L 9.109375 -134.734375 L 22.453125 -134.734375 L 86.234375 0 L 93.40625 0 L 128.546875 -88.1875 L 168.25 0 L 175.734375 0 L 218.046875 -124.640625 C 219.128906 -127.679688 220.753906 -130.125 222.921875 -131.96875 C 225.085938 -133.8125 228.773438 -134.734375 233.984375 -134.734375 L 233.984375 -139.9375 L 201.765625 -139.9375 L 201.765625 -134.734375 C 206.109375 -134.734375 209.039062 -134.132812 210.5625 -132.9375 C 212.082031 -131.75 212.84375 -130.503906 212.84375 -129.203125 Z M 212.84375 -129.203125 "/></g></g></g><g fill="#ab1d79" fill-opacity="1"><g transform="translate(616.894597, 284.396365)"><g><path d="M 5.203125 -69.3125 C 5.203125 -60.207031 6.71875 -51.257812 9.75 -42.46875 C 12.789062 -33.6875 17.296875 -25.875 23.265625 -19.03125 C 29.234375 -12.195312 36.828125 -6.664062 46.046875 -2.4375 C 55.265625 1.789062 66.0625 3.90625 78.4375 3.90625 C 90.800781 3.90625 101.59375 1.789062 110.8125 -2.4375 C 120.03125 -6.664062 127.625 -12.195312 133.59375 -19.03125 C 139.5625 -25.875 144.0625 -33.6875 147.09375 -42.46875 C 150.132812 -51.257812 151.65625 -60.207031 151.65625 -69.3125 C 151.65625 -78.425781 150.132812 -87.375 147.09375 -96.15625 C 144.0625 -104.945312 139.5625 -112.757812 133.59375 -119.59375 C 127.625 -126.425781 120.03125 -131.957031 110.8125 -136.1875 C 101.59375 -140.425781 90.800781 -142.546875 78.4375 -142.546875 C 66.0625 -142.546875 55.265625 -140.425781 46.046875 -136.1875 C 36.828125 -131.957031 29.234375 -126.425781 23.265625 -119.59375 C 17.296875 -112.757812 12.789062 -104.945312 9.75 -96.15625 C 6.71875 -87.375 5.203125 -78.425781 5.203125 -69.3125 Z M 55.65625 -81.359375 C 55.65625 -90.035156 55.867188 -97.84375 56.296875 -104.78125 C 56.734375 -111.726562 57.707031 -117.535156 59.21875 -122.203125 C 60.738281 -126.867188 63.019531 -130.445312 66.0625 -132.9375 C 69.101562 -135.4375 73.226562 -136.6875 78.4375 -136.6875 C 83.632812 -136.6875 87.753906 -135.4375 90.796875 -132.9375 C 93.835938 -130.445312 96.113281 -126.867188 97.625 -122.203125 C 99.144531 -117.535156 100.125 -111.726562 100.5625 -104.78125 C 101 -97.84375 101.21875 -90.035156 101.21875 -81.359375 L 101.21875 -55.96875 C 101.21875 -47.070312 101 -39.257812 100.5625 -32.53125 C 100.125 -25.8125 99.144531 -20.171875 97.625 -15.609375 C 96.113281 -11.054688 93.835938 -7.640625 90.796875 -5.359375 C 87.753906 -3.085938 83.632812 -1.953125 78.4375 -1.953125 C 73.226562 -1.953125 69.101562 -3.085938 66.0625 -5.359375 C 63.019531 -7.640625 60.738281 -11.054688 59.21875 -15.609375 C 57.707031 -20.171875 56.734375 -25.8125 56.296875 -32.53125 C 55.867188 -39.257812 55.65625 -47.070312 55.65625 -55.96875 Z M 55.65625 -81.359375 "/></g></g></g><g fill="#ab1d79" fill-opacity="1"><g transform="translate(773.725691, 284.396365)"><g><path d="M 162.390625 -5.203125 L 162.390625 -97.3125 C 162.390625 -106.414062 161.03125 -114.003906 158.3125 -120.078125 C 155.601562 -126.160156 152.023438 -130.9375 147.578125 -134.40625 C 143.140625 -137.875 137.9375 -140.3125 131.96875 -141.71875 C 126 -143.132812 119.757812 -143.84375 113.25 -143.84375 C 107.613281 -143.84375 102.570312 -143.082031 98.125 -141.5625 C 93.675781 -140.039062 89.820312 -138.085938 86.5625 -135.703125 C 83.3125 -133.316406 80.492188 -130.492188 78.109375 -127.234375 C 75.722656 -123.984375 73.769531 -120.734375 72.25 -117.484375 L 72.25 -147.75 L 4.875 -136.359375 L 4.875 -130.828125 L 22.453125 -133.75 L 22.453125 -5.203125 L 4.875 -5.203125 L 4.875 0 L 85.265625 0 L 85.265625 -5.203125 L 71.265625 -5.203125 L 71.265625 -94.703125 C 71.265625 -99.046875 72.1875 -103.546875 74.03125 -108.203125 C 75.875 -112.867188 78.207031 -117.097656 81.03125 -120.890625 C 83.851562 -124.691406 86.890625 -127.835938 90.140625 -130.328125 C 93.398438 -132.828125 96.546875 -134.078125 99.578125 -134.078125 C 105.660156 -134.078125 109.515625 -131.691406 111.140625 -126.921875 C 112.765625 -122.148438 113.578125 -114.773438 113.578125 -104.796875 L 113.578125 -5.203125 L 99.578125 -5.203125 L 99.578125 0 L 179.96875 0 L 179.96875 -5.203125 Z M 162.390625 -5.203125 "/></g></g></g><g fill="#ab1d79" fill-opacity="1"><g transform="translate(956.912246, 284.396365)"><g><path d="M 65.09375 -85.921875 C 65.09375 -95.460938 65.363281 -103.378906 65.90625 -109.671875 C 66.445312 -115.960938 67.367188 -120.953125 68.671875 -124.640625 C 69.972656 -128.328125 71.648438 -130.929688 73.703125 -132.453125 C 75.765625 -133.972656 78.425781 -134.734375 81.6875 -134.734375 C 87.757812 -134.734375 93.019531 -132.5625 97.46875 -128.21875 C 101.914062 -123.882812 105.660156 -119.003906 108.703125 -113.578125 L 108.703125 -29.609375 C 107.398438 -27.222656 105.769531 -24.675781 103.8125 -21.96875 C 101.863281 -19.257812 99.691406 -16.707031 97.296875 -14.3125 C 94.910156 -11.925781 92.414062 -9.972656 89.8125 -8.453125 C 87.21875 -6.941406 84.507812 -6.1875 81.6875 -6.1875 C 78.425781 -6.1875 75.710938 -6.726562 73.546875 -7.8125 C 71.378906 -8.894531 69.695312 -11.0625 68.5 -14.3125 C 67.3125 -17.570312 66.445312 -22.289062 65.90625 -28.46875 C 65.363281 -34.65625 65.09375 -42.957031 65.09375 -53.375 Z M 91.453125 -209.90625 L 108.703125 -213.15625 L 108.703125 -124.96875 C 106.097656 -129.957031 101.972656 -134.078125 96.328125 -137.328125 C 90.691406 -140.585938 83.316406 -142.21875 74.203125 -142.21875 C 63.347656 -142.21875 53.851562 -140.15625 45.71875 -136.03125 C 37.582031 -131.90625 30.800781 -126.425781 25.375 -119.59375 C 19.957031 -112.757812 15.890625 -105.003906 13.171875 -96.328125 C 10.460938 -87.648438 9.109375 -78.753906 9.109375 -69.640625 C 9.109375 -60.523438 10.460938 -51.570312 13.171875 -42.78125 C 15.890625 -34 19.957031 -26.191406 25.375 -19.359375 C 30.800781 -12.523438 37.582031 -7.046875 45.71875 -2.921875 C 53.851562 1.191406 63.347656 3.25 74.203125 3.25 C 82.441406 3.25 89.4375 0.921875 95.1875 -3.734375 C 100.9375 -8.398438 105.441406 -13.015625 108.703125 -17.578125 L 108.703125 0 L 175.078125 0 L 175.078125 -5.203125 L 157.515625 -5.203125 L 157.515625 -227.484375 L 91.453125 -215.109375 Z M 91.453125 -209.90625 "/></g></g></g><g fill="#ab1d79" fill-opacity="1"><g transform="translate(1138.797262, 284.396365)"><g><path d="M 74.203125 -119.4375 L 74.203125 -147.421875 L 7.8125 -136.359375 L 7.8125 -130.828125 L 25.390625 -133.75 L 25.390625 -5.203125 L 7.8125 -5.203125 L 7.8125 0 L 91.765625 0 L 91.765625 -5.203125 L 74.203125 -5.203125 L 74.203125 -99.265625 C 74.203125 -102.515625 74.957031 -106.195312 76.46875 -110.3125 C 77.988281 -114.4375 80.210938 -118.394531 83.140625 -122.1875 C 86.078125 -125.988281 89.5 -129.191406 93.40625 -131.796875 C 97.3125 -134.398438 101.757812 -135.703125 106.75 -135.703125 C 104.351562 -134.179688 101.851562 -131.898438 99.25 -128.859375 C 96.65625 -125.828125 95.359375 -121.707031 95.359375 -116.5 C 95.359375 -110.207031 97.414062 -105.109375 101.53125 -101.203125 C 105.65625 -97.304688 111.296875 -95.359375 118.453125 -95.359375 C 124.097656 -95.359375 129.304688 -97.144531 134.078125 -100.71875 C 138.847656 -104.300781 141.234375 -109.78125 141.234375 -117.15625 C 141.234375 -125.613281 138.519531 -131.957031 133.09375 -136.1875 C 127.675781 -140.425781 120.300781 -142.546875 110.96875 -142.546875 C 102.289062 -142.546875 94.804688 -140.375 88.515625 -136.03125 C 82.222656 -131.695312 77.453125 -126.164062 74.203125 -119.4375 Z M 74.203125 -119.4375 "/></g></g></g><g fill="#ab1d79" fill-opacity="1"><g transform="translate(1285.867137, 284.396365)"><g><path d="M 5.203125 -69.3125 C 5.203125 -60.207031 6.71875 -51.257812 9.75 -42.46875 C 12.789062 -33.6875 17.296875 -25.875 23.265625 -19.03125 C 29.234375 -12.195312 36.828125 -6.664062 46.046875 -2.4375 C 55.265625 1.789062 66.0625 3.90625 78.4375 3.90625 C 90.800781 3.90625 101.59375 1.789062 110.8125 -2.4375 C 120.03125 -6.664062 127.625 -12.195312 133.59375 -19.03125 C 139.5625 -25.875 144.0625 -33.6875 147.09375 -42.46875 C 150.132812 -51.257812 151.65625 -60.207031 151.65625 -69.3125 C 151.65625 -78.425781 150.132812 -87.375 147.09375 -96.15625 C 144.0625 -104.945312 139.5625 -112.757812 133.59375 -119.59375 C 127.625 -126.425781 120.03125 -131.957031 110.8125 -136.1875 C 101.59375 -140.425781 90.800781 -142.546875 78.4375 -142.546875 C 66.0625 -142.546875 55.265625 -140.425781 46.046875 -136.1875 C 36.828125 -131.957031 29.234375 -126.425781 23.265625 -119.59375 C 17.296875 -112.757812 12.789062 -104.945312 9.75 -96.15625 C 6.71875 -87.375 5.203125 -78.425781 5.203125 -69.3125 Z M 55.65625 -81.359375 C 55.65625 -90.035156 55.867188 -97.84375 56.296875 -104.78125 C 56.734375 -111.726562 57.707031 -117.535156 59.21875 -122.203125 C 60.738281 -126.867188 63.019531 -130.445312 66.0625 -132.9375 C 69.101562 -135.4375 73.226562 -136.6875 78.4375 -136.6875 C 83.632812 -136.6875 87.753906 -135.4375 90.796875 -132.9375 C 93.835938 -130.445312 96.113281 -126.867188 97.625 -122.203125 C 99.144531 -117.535156 100.125 -111.726562 100.5625 -104.78125 C 101 -97.84375 101.21875 -90.035156 101.21875 -81.359375 L 101.21875 -55.96875 C 101.21875 -47.070312 101 -39.257812 100.5625 -32.53125 C 100.125 -25.8125 99.144531 -20.171875 97.625 -15.609375 C 96.113281 -11.054688 93.835938 -7.640625 90.796875 -5.359375 C 87.753906 -3.085938 83.632812 -1.953125 78.4375 -1.953125 C 73.226562 -1.953125 69.101562 -3.085938 66.0625 -5.359375 C 63.019531 -7.640625 60.738281 -11.054688 59.21875 -15.609375 C 57.707031 -20.171875 56.734375 -25.8125 56.296875 -32.53125 C 55.867188 -39.257812 55.65625 -47.070312 55.65625 -55.96875 Z M 55.65625 -81.359375 "/></g></g></g><g fill="#ab1d79" fill-opacity="1"><g transform="translate(1442.698232, 284.396365)"><g><path d="M 26.03125 -133.75 L 26.03125 -49.140625 C 26.03125 -13.773438 42.300781 3.90625 74.84375 3.90625 C 86.34375 3.90625 95.289062 1.300781 101.6875 -3.90625 C 108.09375 -9.113281 112.925781 -15.078125 116.1875 -21.796875 L 116.1875 0 L 182.890625 0 L 182.890625 -5.203125 L 165.640625 -5.203125 L 165.640625 -147.421875 L 99.578125 -136.359375 L 99.578125 -130.828125 L 116.828125 -133.75 L 116.828125 -48.171875 C 116.828125 -44.472656 116.066406 -40.289062 114.546875 -35.625 C 113.035156 -30.96875 111.03125 -26.578125 108.53125 -22.453125 C 106.039062 -18.328125 103.113281 -14.851562 99.75 -12.03125 C 96.382812 -9.21875 92.859375 -7.8125 89.171875 -7.8125 C 83.742188 -7.8125 80 -9.65625 77.9375 -13.34375 C 75.875 -17.03125 74.84375 -23.644531 74.84375 -33.1875 L 74.84375 -147.421875 L 8.46875 -136.359375 L 8.46875 -130.828125 Z M 26.03125 -133.75 "/></g></g></g><g fill="#ab1d79" fill-opacity="1"><g transform="translate(1629.789259, 284.396365)"><g><path d="M 103.15625 -141.234375 L 96.328125 -133.109375 C 93.503906 -135.492188 89.488281 -137.660156 84.28125 -139.609375 C 79.082031 -141.566406 72.789062 -142.546875 65.40625 -142.546875 C 55.644531 -142.546875 47.1875 -141.132812 40.03125 -138.3125 C 32.875 -135.488281 27.015625 -131.796875 22.453125 -127.234375 C 17.898438 -122.679688 14.484375 -117.476562 12.203125 -111.625 C 9.921875 -105.769531 8.78125 -99.800781 8.78125 -93.71875 C 8.78125 -87.21875 9.921875 -81.035156 12.203125 -75.171875 C 14.484375 -69.316406 17.789062 -64.21875 22.125 -59.875 C 26.46875 -55.539062 31.785156 -52.125 38.078125 -49.625 C 44.367188 -47.132812 51.632812 -45.890625 59.875 -45.890625 C 67.257812 -45.890625 73.171875 -45.179688 77.609375 -43.765625 C 82.054688 -42.359375 85.421875 -40.566406 87.703125 -38.390625 C 89.984375 -36.222656 91.445312 -33.835938 92.09375 -31.234375 C 92.75 -28.640625 93.078125 -26.144531 93.078125 -23.75 C 93.078125 -18.332031 90.796875 -13.34375 86.234375 -8.78125 C 81.679688 -4.226562 73.984375 -1.953125 63.140625 -1.953125 C 51.421875 -1.953125 41.597656 -4.9375 33.671875 -10.90625 C 25.753906 -16.875 19.628906 -26.90625 15.296875 -41 C 14.210938 -44.90625 12.910156 -46.859375 11.390625 -46.859375 C 9.648438 -46.859375 8.78125 -45.34375 8.78125 -42.3125 L 8.78125 -0.328125 C 8.78125 1.410156 9.429688 2.28125 10.734375 2.28125 C 11.609375 2.28125 12.367188 1.953125 13.015625 1.296875 C 13.671875 0.648438 14.210938 -0.101562 14.640625 -0.96875 L 21.15625 -10.09375 C 25.28125 -7.050781 30.921875 -3.957031 38.078125 -0.8125 C 45.234375 2.332031 53.585938 3.90625 63.140625 3.90625 C 72.679688 3.90625 80.921875 2.390625 87.859375 -0.640625 C 94.804688 -3.679688 100.554688 -7.695312 105.109375 -12.6875 C 109.671875 -17.675781 113.085938 -23.316406 115.359375 -29.609375 C 117.640625 -35.898438 118.78125 -42.300781 118.78125 -48.8125 C 118.78125 -55.101562 118.019531 -61.066406 116.5 -66.703125 C 114.988281 -72.347656 112.332031 -77.335938 108.53125 -81.671875 C 104.738281 -86.015625 99.640625 -89.429688 93.234375 -91.921875 C 86.835938 -94.421875 78.757812 -95.671875 69 -95.671875 C 57.28125 -95.671875 48.925781 -97.40625 43.9375 -100.875 C 38.945312 -104.351562 36.453125 -109.238281 36.453125 -115.53125 C 36.453125 -120.738281 38.78125 -125.566406 43.4375 -130.015625 C 48.101562 -134.460938 55.425781 -136.6875 65.40625 -136.6875 C 69.101562 -136.6875 72.898438 -136.035156 76.796875 -134.734375 C 80.703125 -133.429688 84.390625 -131.585938 87.859375 -129.203125 C 91.335938 -126.816406 94.320312 -123.941406 96.8125 -120.578125 C 99.3125 -117.210938 101.101562 -113.359375 102.1875 -109.015625 C 102.832031 -105.765625 103.914062 -104.140625 105.4375 -104.140625 C 106.957031 -104.140625 107.71875 -105.984375 107.71875 -109.671875 L 107.71875 -140.265625 C 107.71875 -142.210938 107.175781 -143.1875 106.09375 -143.1875 C 105.007812 -143.1875 104.359375 -142.96875 104.140625 -142.53125 C 103.921875 -142.101562 103.59375 -141.671875 103.15625 -141.234375 Z M 103.15625 -141.234375 "/></g></g></g></g></g><g clip-path="url(#0e09dae88f)"><path fill="#4e2780" d="M 1816.507812 408.007812 C 1796.8125 408.007812 1780.789062 424.03125 1780.789062 443.726562 C 1780.789062 463.421875 1796.8125 479.449219 1816.507812 479.449219 C 1836.203125 479.449219 1852.230469 463.421875 1852.230469 443.726562 C 1852.230469 424.03125 1836.203125 408.007812 1816.507812 408.007812 Z M 1816.507812 482.40625 C 1811.289062 482.40625 1806.222656 481.382812 1801.453125 479.367188 C 1796.84375 477.417969 1792.710938 474.628906 1789.15625 471.078125 C 1785.605469 467.527344 1782.816406 463.390625 1780.867188 458.78125 C 1778.851562 454.015625 1777.828125 448.949219 1777.828125 443.726562 C 1777.828125 438.507812 1778.851562 433.441406 1780.867188 428.671875 C 1782.816406 424.0625 1785.605469 419.925781 1789.15625 416.375 C 1792.710938 412.824219 1796.84375 410.035156 1801.453125 408.085938 C 1806.222656 406.070312 1811.289062 405.046875 1816.507812 405.046875 C 1821.730469 405.046875 1826.796875 406.070312 1831.566406 408.085938 C 1836.171875 410.035156 1840.308594 412.824219 1843.859375 416.375 C 1847.410156 419.925781 1850.199219 424.0625 1852.148438 428.671875 C 1854.164062 433.441406 1855.1875 438.507812 1855.1875 443.726562 C 1855.1875 448.949219 1854.164062 454.015625 1852.148438 458.78125 C 1850.199219 463.390625 1847.410156 467.527344 1843.859375 471.078125 C 1840.308594 474.628906 1836.171875 477.417969 1831.566406 479.367188 C 1826.796875 481.382812 1821.730469 482.40625 1816.507812 482.40625 " fill-opacity="1" fill-rule="nonzero"/></g><path fill="#4e2780" d="M 1800.15625 455.769531 L 1800.15625 434.890625 L 1792.195312 434.890625 L 1792.195312 431.683594 L 1812.039062 431.683594 L 1812.039062 434.890625 L 1804.097656 434.890625 L 1804.097656 455.769531 L 1800.15625 455.769531 " fill-opacity="1" fill-rule="nonzero"/><path fill="#4e2780" d="M 1836.882812 455.769531 L 1836.882812 443.5625 C 1836.882812 442.519531 1836.90625 441.355469 1836.957031 440.105469 L 1836.976562 435.378906 C 1836.734375 436.113281 1835.015625 441.3125 1834.757812 442.027344 L 1829.722656 455.769531 L 1827.210938 455.769531 L 1822.175781 442.023438 C 1821.917969 441.3125 1820.160156 436.453125 1819.921875 435.730469 L 1819.984375 440.121094 C 1820.03125 441.308594 1820.054688 442.460938 1820.054688 443.542969 L 1820.054688 455.769531 L 1816.113281 455.769531 L 1816.113281 431.683594 L 1821.929688 431.683594 L 1826.117188 443.234375 C 1826.683594 444.785156 1827.226562 446.457031 1827.742188 448.199219 L 1828.445312 450.59375 L 1829.160156 448.203125 C 1829.625 446.652344 1830.167969 445 1830.785156 443.289062 L 1834.972656 431.683594 L 1840.824219 431.683594 L 1840.824219 455.769531 L 1836.882812 455.769531 " fill-opacity="1" fill-rule="nonzero"/></svg>