<svg xmlns="http://www.w3.org/2000/svg" version="1.1" xmlns:xlink="http://www.w3.org/1999/xlink" width="1500" height="1500" viewBox="0 0 1500 1500"><rect width="1500" height="1500" x="0" y="0" id="background" stroke="transparent" fill="#ffffff"></rect><svg xml:space="preserve" width="1000" height="1000" data-version="2" data-id="lg_PmZi77mUQif1HGbpsq" viewBox="0 0 628 77" x="250" y="250"><rect width="100%" height="100%" fill="transparent"></rect><g transform="translate(122.5 39.37)"><linearGradient id="a" x1="0" x2="9.22" y1="0" y2="0" gradientUnits="objectBoundingBox"><stop offset="0%" stop-color="#f00b51"></stop><stop offset="100%" stop-color="#730062"></stop></linearGradient><path fill="url(#a)" d="M233.75 372.98v-1.35h19.35v1.35h-3.08l6.75 25.27 6.68-25.27h-5.18v-1.35h10.13v1.35h-3.15l-9 34.35h-10.28l-6.52-23.03-7.05 23.03h-10.05l-11.1-34.35h-3.38v-1.35h22.73v1.35h-4.5l6.9 25.5 5.4-17.55-1.88-7.95Z" transform="translate(-238.13 -389.48)"></path></g><rect width="60.53" height="35.7" x="-30.27" y="-17.85" fill="none" rx="0" ry="0" transform="translate(123 39.87)"></rect><g transform="translate(171.03 39.37)"><linearGradient id="b" x1="-1.48" x2="12.68" y1="0" y2="0" gradientUnits="objectBoundingBox"><stop offset="0%" stop-color="#f00b51"></stop><stop offset="100%" stop-color="#730062"></stop></linearGradient><path fill="url(#b)" d="M291.27 392.55v-6.37q0-7.28-.79-10.61-.78-3.34-3.63-3.34-1.65 0-2.67.94-1.01.93-1.46 3.11-.67 3.37-.67 10.27v5.85q0 8.18.48 9.83.49 1.65 1.02 2.7.82 1.8 3.22 1.8 2.93 0 3.83-3.38.67-2.4.67-10.8m-4.65 15.53q-9.37 0-14.17-4.8-4.8-4.8-4.8-13.76 0-8.97 5.13-13.8 5.14-4.84 14.44-4.84t13.88 4.46q4.57 4.46 4.57 13.61 0 19.13-19.05 19.13" transform="translate(-286.66 -389.48)"></path></g><rect width="38.02" height="37.2" x="-19.01" y="-18.6" fill="none" rx="0" ry="0" transform="translate(171.53 39.87)"></rect><g transform="translate(213.85 39)"><linearGradient id="c" x1="-2.18" x2="10.15" y1="0" y2="0" gradientUnits="objectBoundingBox"><stop offset="0%" stop-color="#f00b51"></stop><stop offset="100%" stop-color="#730062"></stop></linearGradient><path fill="url(#c)" d="M306.95 371.63h18.07v6.9q1.2-3.45 3.68-5.55 2.47-2.1 7.5-2.1 11.62 0 11.62 12.52v22.58h4.2v1.35H330.8v-1.35h3.07V381.6q0-4.5-.6-5.81-.6-1.31-2.17-1.31-2.4 0-4.24 3.15-1.84 3.15-1.84 7.65v20.7h3.23v1.35h-21.3v-1.35h4.12v-33h-4.12Z" transform="translate(-329.49 -389.1)"></path></g><rect width="45.07" height="36.45" x="-22.54" y="-18.23" fill="none" rx="0" ry="0" transform="translate(214.35 39.5)"></rect><g transform="translate(257.84 29.47)"><linearGradient id="d" x1="-3.34" x2="9.64" y1="0" y2="0" gradientUnits="objectBoundingBox"><stop offset="0%" stop-color="#f00b51"></stop><stop offset="100%" stop-color="#730062"></stop></linearGradient><path fill="url(#d)" d="M367.25 391.8q0 7.88.82 10.47.83 2.58 3.04 2.58t3.82-1.95q1.62-1.95 1.62-5.77v-16.35q0-3.23-1.28-5.48-1.27-2.25-3.75-2.25-2.47 0-3.37 3.3-.9 3.3-.9 11.55zm10.27 15.53-.82-5.25q-2.55 6-10.35 6-6.45 0-10.02-4.65-3.56-4.65-3.56-13.88 0-18.67 14.85-18.67 6.6 0 8.7 3.67v-22.12h-4.57v-1.35h18.75v54.9h3.67v1.35Z" transform="translate(-373.47 -379.58)"></path></g><rect width="41.4" height="57" x="-20.7" y="-28.5" fill="none" rx="0" ry="0" transform="translate(258.34 29.97)"></rect><g transform="translate(297.56 39)"><linearGradient id="e" x1="-5.23" x2="10.62" y1="0" y2="0" gradientUnits="objectBoundingBox"><stop offset="0%" stop-color="#f00b51"></stop><stop offset="100%" stop-color="#730062"></stop></linearGradient><path fill="url(#e)" d="M420.2 373.73q-2.78 0-4.88 3.6t-2.1 8.55v20.1h5.33v1.35h-23.4v-1.35h4.12v-33h-4.12v-1.35h18.07v7.2q.98-3.83 3.75-5.89 2.78-2.06 6.3-2.06 3.53 0 5.74 1.99 2.21 1.98 2.21 5.62t-1.65 5.59q-1.65 1.95-5.06 1.95-3.41 0-5.03-2.25-1.61-2.25-.41-6.23h2.7q1.88-3.82-1.57-3.82" transform="translate(-413.19 -389.1)"></path></g><rect width="36.07" height="36.45" x="-18.04" y="-18.23" fill="none" rx="0" ry="0" transform="translate(298.06 39.5)"></rect><g transform="translate(334.9 39.37)"><linearGradient id="f" x1="-5.61" x2="8.56" y1="0" y2="0" gradientUnits="objectBoundingBox"><stop offset="0%" stop-color="#f00b51"></stop><stop offset="100%" stop-color="#730062"></stop></linearGradient><path fill="url(#f)" d="M455.15 392.55v-6.37q0-7.28-.79-10.61-.79-3.34-3.64-3.34-1.65 0-2.66.94-1.01.93-1.46 3.11-.68 3.37-.68 10.27v5.85q0 8.18.49 9.83.49 1.65 1.01 2.7.83 1.8 3.23 1.8 2.92 0 3.82-3.38.68-2.4.68-10.8m-4.65 15.53q-9.38 0-14.18-4.8-4.8-4.8-4.8-13.76 0-8.97 5.14-13.8 5.14-4.84 14.44-4.84t13.87 4.46q4.58 4.46 4.58 13.61 0 19.13-19.05 19.13" transform="translate(-450.54 -389.48)"></path></g><rect width="38.03" height="37.2" x="-19.02" y="-18.6" fill="none" rx="0" ry="0" transform="translate(335.4 39.87)"></rect><g transform="translate(376.75 39.74)"><linearGradient id="g" x1="-5.91" x2="6.66" y1="0" y2="0" gradientUnits="objectBoundingBox"><stop offset="0%" stop-color="#f00b51"></stop><stop offset="100%" stop-color="#730062"></stop></linearGradient><path fill="url(#g)" d="M514.55 407.33h-17.1l-.83-5.48q-1.2 3-3.56 4.62-2.36 1.61-7.01 1.61-11.63 0-11.63-12.53v-22.57h-4.2v-1.35h18.15v25.72q0 4.5.64 5.93.64 1.42 2.55 1.42 1.91 0 3.41-2.32 1.5-2.33 1.5-6.45v-22.95h-3.45v-1.35h17.4v34.35h4.13Z" transform="translate(-492.38 -389.86)"></path></g><rect width="44.33" height="36.45" x="-22.16" y="-18.23" fill="none" rx="0" ry="0" transform="translate(377.25 40.24)"></rect><g transform="translate(415.45 39.3)"><linearGradient id="h" x1="-9.72" x2="8.37" y1="0" y2="0" gradientUnits="objectBoundingBox"><stop offset="0%" stop-color="#f00b51"></stop><stop offset="100%" stop-color="#730062"></stop></linearGradient><path fill="url(#h)" d="M516.8 408.08v-13.43h.9q1.95 6.53 5.25 9.15 3.3 2.63 8.25 2.63 7.65 0 7.65-4.88 0-2.1-1.88-3.15-2.92-1.65-7.5-2.55-5.1-1.35-8.55-3.6-4.12-2.7-4.12-8.55 0-5.85 3.6-9.33 3.6-3.49 9.6-3.49 3.67 0 7.57 1.72 1.43.6 2.18.6.75 0 1.27-.52.53-.53 1.28-1.95h.82v11.47h-.9q-3.82-9.75-11.85-9.75-3.52 0-5.25 1.24-1.72 1.24-1.72 3.11 0 1.13.52 1.77.53.63.83.93.3.3.97.64.68.34 1.13.53.45.18 1.38.48.94.3 1.39.38 5.1 1.27 7.35 2.21t4.28 2.29q4.12 2.85 4.12 9.19 0 6.33-3.75 9.6-3.75 3.26-10.27 3.26-4.65 0-9-2.18-.9-.6-1.43-.6-1.65 0-3.22 2.78Z" transform="translate(-531.09 -389.4)"></path></g><rect width="28.57" height="37.35" x="-14.29" y="-18.68" fill="none" rx="0" ry="0" transform="translate(415.95 39.8)"></rect><g transform="translate(440.2 51.44)"><linearGradient id="i" x1="-17.91" x2="12.98" y1="0" y2="0" gradientUnits="objectBoundingBox"><stop offset="0%" stop-color="#f00b51"></stop><stop offset="100%" stop-color="#730062"></stop></linearGradient><path fill="url(#i)" d="M555.76 408.08h-1.63q-1.63 0-3.25-1.91-1.61-1.92-1.61-4.65 0-2.74 1.69-4.62 1.69-1.87 4.76-1.87 3.08 0 4.88 1.57 1.8 1.58 1.8 4.73 0 3.15-1.69 4.95-1.69 1.8-4.95 1.8" transform="translate(-555.84 -401.56)"></path></g><rect width="13.13" height="13.05" x="-6.57" y="-6.53" fill="none" rx="0" ry="0" transform="translate(440.7 51.94)"></rect><g transform="translate(465.93 39.3)"><linearGradient id="j" x1="-11.6" x2="6.96" y1="0" y2="0" gradientUnits="objectBoundingBox"><stop offset="0%" stop-color="#f00b51"></stop><stop offset="100%" stop-color="#730062"></stop></linearGradient><path fill="url(#j)" d="M567.27 408.08v-13.43h.9q1.95 6.53 5.25 9.15 3.3 2.63 8.25 2.63 7.65 0 7.65-4.88 0-2.1-1.87-3.15-2.93-1.65-7.5-2.55-5.1-1.35-8.55-3.6-4.13-2.7-4.13-8.55 0-5.85 3.6-9.33 3.6-3.49 9.6-3.49 3.68 0 7.58 1.72 1.42.6 2.17.6t1.28-.52q.52-.53 1.27-1.95h.83v11.47h-.9q-3.83-9.75-11.85-9.75-3.53 0-5.25 1.24-1.73 1.24-1.73 3.11 0 1.13.53 1.77.52.63.82.93.3.3.98.64.67.34 1.12.53.45.18 1.39.48t1.39.38q5.1 1.27 7.35 2.21t4.27 2.29q4.13 2.85 4.13 9.19 0 6.33-3.75 9.6-3.75 3.26-10.28 3.26-4.65 0-9-2.18-.9-.6-1.42-.6-1.65 0-3.23 2.78Z" transform="translate(-581.56 -389.4)"></path></g><rect width="28.58" height="37.35" x="-14.29" y="-18.68" fill="none" rx="0" ry="0" transform="translate(466.43 39.8)"></rect><g transform="translate(494.95 33.18)"><linearGradient id="k" x1="-13.59" x2="6.51" y1="0" y2="0" gradientUnits="objectBoundingBox"><stop offset="0%" stop-color="#f00b51"></stop><stop offset="100%" stop-color="#730062"></stop></linearGradient><path fill="url(#k)" d="M600.12 396.6v-23.62H596v-1.35h4.12v-9.68l13.95-3.45v13.13h9.75v1.35h-9.75v25.27q0 3.53.71 5.18.72 1.65 2.97 1.65t3.93-2.25q1.69-2.25 2.22-6.15l1.27.15q-.6 5.17-3.3 8.21-2.7 3.04-8.92 3.04-6.23 0-9.53-2.48-3.3-2.47-3.3-9" transform="translate(-610.59 -383.29)"></path></g><rect width="29.17" height="49.58" x="-14.59" y="-24.79" fill="none" rx="0" ry="0" transform="translate(495.45 33.68)"></rect><g transform="translate(528.93 39.37)"><linearGradient id="l" x1="-10.49" x2="3.68" y1="0" y2="0" gradientUnits="objectBoundingBox"><stop offset="0%" stop-color="#f00b51"></stop><stop offset="100%" stop-color="#730062"></stop></linearGradient><path fill="url(#l)" d="M649.17 392.55v-6.37q0-7.28-.79-10.61-.78-3.34-3.63-3.34-1.65 0-2.67.94-1.01.93-1.46 3.11-.67 3.37-.67 10.27v5.85q0 8.18.48 9.83.49 1.65 1.02 2.7.82 1.8 3.22 1.8 2.93 0 3.83-3.38.67-2.4.67-10.8m-4.65 15.53q-9.37 0-14.17-4.8-4.8-4.8-4.8-13.76 0-8.97 5.13-13.8 5.14-4.84 14.44-4.84t13.88 4.46q4.57 4.46 4.57 13.61 0 19.13-19.05 19.13" transform="translate(-644.56 -389.48)"></path></g><rect width="38.02" height="37.2" x="-19.01" y="-18.6" fill="none" rx="0" ry="0" transform="translate(529.43 39.87)"></rect><g transform="translate(567.1 39)"><linearGradient id="m" x1="-12.76" x2="3.09" y1="0" y2="0" gradientUnits="objectBoundingBox"><stop offset="0%" stop-color="#f00b51"></stop><stop offset="100%" stop-color="#730062"></stop></linearGradient><path fill="url(#m)" d="M689.75 373.73q-2.78 0-4.88 3.6t-2.1 8.55v20.1h5.33v1.35h-23.4v-1.35h4.12v-33h-4.12v-1.35h18.07v7.2q.98-3.83 3.75-5.89 2.78-2.06 6.3-2.06 3.53 0 5.74 1.99 2.21 1.98 2.21 5.62t-1.65 5.59q-1.65 1.95-5.06 1.95-3.41 0-5.03-2.25-1.61-2.25-.41-6.23h2.7q1.88-3.82-1.57-3.82" transform="translate(-682.74 -389.1)"></path></g><rect width="36.07" height="36.45" x="-18.04" y="-18.23" fill="none" rx="0" ry="0" transform="translate(567.6 39.5)"></rect><g transform="translate(603.13 39.37)"><linearGradient id="n" x1="-13.05" x2="1.93" y1="0" y2="0" gradientUnits="objectBoundingBox"><stop offset="0%" stop-color="#f00b51"></stop><stop offset="100%" stop-color="#730062"></stop></linearGradient><path fill="url(#n)" d="M720.2 408.08q-9.68 0-14.52-4.99-4.83-4.99-4.83-13.87 0-8.89 5.43-13.62 5.44-4.72 13.84-4.72 17.03 0 16.35 17.1h-21.15v2.92q0 7.35 1.88 11.1 1.87 3.75 6.52 3.75 8.7 0 11.4-9.3l1.35.23q-1.42 5.4-5.14 8.4-3.71 3-11.13 3m-4.8-21.6h7.72v-3.68q0-6.07-.71-8.28-.71-2.22-2.85-2.22t-3.15 2.37q-1.01 2.36-1.01 8.13Z" transform="translate(-718.76 -389.48)"></path></g><rect width="35.83" height="37.2" x="-17.91" y="-18.6" fill="none" rx="0" ry="0" transform="translate(603.63 39.87)"></rect><path fill="#85144b" d="M41.803 2.019c-19.66 0-35.85 16.19-35.85 35.85s16.19 35.85 35.85 35.85 35.85-16.19 35.85-35.85-16.19-35.85-35.85-35.85m0 69.387c-18.503 0-33.537-15.034-33.537-33.538S23.3 4.331 41.803 4.331 75.34 19.365 75.34 37.868 60.307 71.406 41.803 71.406"></path><path fill="#85144b" d="M29.314 28.154c-5.32 0-9.714 4.395-9.714 9.714 0 5.32 4.394 9.715 9.714 9.715 3.7 0 7.17-2.082 8.557-5.551h15.034v4.394h2.313v-4.394H57.3v3.238h2.313v-3.238h2.081v4.394h2.313v-12.72H37.871c-1.387-3.47-4.857-5.552-8.557-5.552m32.38 11.565H36.252l-.23.694c-.926 3.006-3.702 4.857-6.708 4.857-4.164 0-7.402-3.238-7.402-7.402 0-4.163 3.238-7.4 7.402-7.4 3.006 0 5.782 1.85 6.707 4.856l.231.694h25.442z"></path><circle r=".6" fill="#85144b" transform="translate(29.31 37.87)scale(2.3129)"></circle></svg></svg>